<svg xmlns="http://www.w3.org/2000/svg" viewBox="0 0 1200 675" role="img" aria-label="AI empowered physics teaching framework">
  <defs>
    <linearGradient id="bg" x1="0" x2="1" y1="0" y2="1">
      <stop offset="0" stop-color="#101820"/>
      <stop offset="1" stop-color="#203847"/>
    </linearGradient>
    <linearGradient id="accent" x1="0" x2="1">
      <stop offset="0" stop-color="#6ee7b7"/>
      <stop offset="1" stop-color="#60a5fa"/>
    </linearGradient>
    <filter id="soft" x="-20%" y="-20%" width="140%" height="140%">
      <feDropShadow dx="0" dy="14" stdDeviation="18" flood-color="#000" flood-opacity=".22"/>
    </filter>
  </defs>
  <rect width="1200" height="675" fill="url(#bg)"/>
  <g fill="none" stroke="#ffffff" stroke-opacity=".08" stroke-width="2">
    <path d="M90 145 C240 90 360 190 505 125 S830 100 1040 170"/>
    <path d="M140 520 C310 455 440 570 610 500 S900 440 1080 520"/>
  </g>
  <g filter="url(#soft)">
    <circle cx="600" cy="340" r="118" fill="#f8fafc"/>
    <circle cx="600" cy="340" r="104" fill="#17202a"/>
    <circle cx="600" cy="340" r="92" fill="url(#accent)" opacity=".92"/>
  </g>
  <text x="600" y="326" text-anchor="middle" fill="#0f172a" font-family="PingFang SC, Microsoft YaHei, sans-serif" font-size="29" font-weight="800">一核</text>
  <text x="600" y="366" text-anchor="middle" fill="#0f172a" font-family="PingFang SC, Microsoft YaHei, sans-serif" font-size="25" font-weight="700">物理核心素养</text>
  <g font-family="PingFang SC, Microsoft YaHei, sans-serif" font-weight="700" font-size="24">
    <g transform="translate(120 176)">
      <rect width="235" height="86" rx="18" fill="#ffffff" fill-opacity=".94"/>
      <text x="118" y="35" text-anchor="middle" fill="#16202a">概念可视化</text>
      <text x="118" y="64" text-anchor="middle" fill="#4b5563" font-size="17" font-weight="500">看见不可见过程</text>
    </g>
    <g transform="translate(482 132)">
      <rect width="235" height="86" rx="18" fill="#ffffff" fill-opacity=".94"/>
      <text x="118" y="35" text-anchor="middle" fill="#16202a">过程动态化</text>
      <text x="118" y="64" text-anchor="middle" fill="#4b5563" font-size="17" font-weight="500">呈现运动与变化</text>
    </g>
    <g transform="translate(845 176)">
      <rect width="235" height="86" rx="18" fill="#ffffff" fill-opacity=".94"/>
      <text x="118" y="35" text-anchor="middle" fill="#16202a">解题结构化</text>
      <text x="118" y="64" text-anchor="middle" fill="#4b5563" font-size="17" font-weight="500">显化模型与路径</text>
    </g>
    <g transform="translate(120 430)">
      <rect width="235" height="86" rx="18" fill="#ffffff" fill-opacity=".94"/>
      <text x="118" y="35" text-anchor="middle" fill="#16202a">实验智能化</text>
      <text x="118" y="64" text-anchor="middle" fill="#4b5563" font-size="17" font-weight="500">辅助观察与分析</text>
    </g>
    <g transform="translate(482 474)">
      <rect width="235" height="86" rx="18" fill="#ffffff" fill-opacity=".94"/>
      <text x="118" y="35" text-anchor="middle" fill="#16202a">学习个性化</text>
      <text x="118" y="64" text-anchor="middle" fill="#4b5563" font-size="17" font-weight="500">诊断错因与变式</text>
    </g>
    <g transform="translate(845 430)">
      <rect width="235" height="86" rx="18" fill="#ffffff" fill-opacity=".94"/>
      <text x="118" y="35" text-anchor="middle" fill="#16202a">教研协同化</text>
      <text x="118" y="64" text-anchor="middle" fill="#4b5563" font-size="17" font-weight="500">共建区域资源库</text>
    </g>
  </g>
  <g stroke="#a7f3d0" stroke-width="4" stroke-linecap="round" opacity=".7">
    <path d="M355 219 L492 294"/>
    <path d="M600 218 L600 248"/>
    <path d="M845 219 L708 294"/>
    <path d="M355 473 L492 386"/>
    <path d="M600 474 L600 432"/>
    <path d="M845 473 L708 386"/>
  </g>
</svg>
